<svg width="75" height="20" viewBox="0 0 75 20" fill="none" xmlns="http://www.w3.org/2000/svg">
<path d="M6.23125 1.864C7.71925 1.864 8.94325 2.008 9.90325 2.296C10.8633 2.568 11.5753 3.024 12.0393 3.664C12.5033 4.288 12.7353 5.136 12.7353 6.208C12.7353 6.848 12.6233 7.432 12.3993 7.96C12.1753 8.488 11.8713 8.92 11.4873 9.256C11.1193 9.592 10.7033 9.808 10.2393 9.904V10.024C10.7193 10.136 11.1753 10.336 11.6073 10.624C12.0553 10.912 12.4153 11.328 12.6873 11.872C12.9593 12.416 13.0953 13.136 13.0953 14.032C13.0953 15.072 12.8473 15.968 12.3513 16.72C11.8713 17.456 11.1833 18.024 10.2873 18.424C9.39125 18.808 8.31925 19 7.07125 19H0.92725V1.864H6.23125ZM6.44725 8.656C7.31125 8.656 7.91125 8.488 8.24725 8.152C8.58325 7.816 8.75125 7.328 8.75125 6.688C8.75125 6.032 8.55125 5.56 8.15125 5.272C7.76725 4.984 7.15925 4.84 6.32725 4.84H4.81525V8.656H6.44725ZM4.81525 11.536V16H6.68725C7.58325 16 8.20725 15.792 8.55925 15.376C8.91125 14.944 9.08725 14.376 9.08725 13.672C9.08725 13.24 9.00725 12.864 8.84725 12.544C8.70325 12.224 8.44725 11.976 8.07925 11.8C7.72725 11.624 7.23125 11.536 6.59125 11.536H4.81525ZM27.5628 5.896V19H24.6588L24.1548 17.32H23.9388C23.6828 17.768 23.3548 18.136 22.9548 18.424C22.5708 18.696 22.1388 18.896 21.6588 19.024C21.1788 19.168 20.6828 19.24 20.1708 19.24C19.3228 19.24 18.5708 19.072 17.9148 18.736C17.2588 18.4 16.7388 17.88 16.3548 17.176C15.9868 16.472 15.8027 15.56 15.8027 14.44V5.896H19.6428V13.552C19.6428 14.48 19.7788 15.184 20.0508 15.664C20.3228 16.144 20.7628 16.384 21.3708 16.384C21.9948 16.384 22.4748 16.216 22.8108 15.88C23.1468 15.544 23.3788 15.056 23.5068 14.416C23.6508 13.776 23.7228 12.992 23.7228 12.064V5.896H27.5628ZM34.6673 5.896V19H30.8273V5.896H34.6673ZM32.7713 0.759999C33.3313 0.759999 33.8113 0.887999 34.2113 1.144C34.6113 1.384 34.8113 1.84 34.8113 2.512C34.8113 3.168 34.6113 3.624 34.2113 3.88C33.8113 4.136 33.3313 4.264 32.7713 4.264C32.1953 4.264 31.7073 4.136 31.3073 3.88C30.9073 3.624 30.7073 3.168 30.7073 2.512C30.7073 1.84 30.9073 1.384 31.3073 1.144C31.7073 0.887999 32.1953 0.759999 32.7713 0.759999ZM41.7689 19H37.9289V0.759999H41.7689V19ZM48.9184 19.24C47.5904 19.24 46.5024 18.672 45.6544 17.536C44.8064 16.384 44.3824 14.696 44.3824 12.472C44.3824 10.232 44.8144 8.536 45.6784 7.384C46.5424 6.232 47.6624 5.656 49.0384 5.656C49.6144 5.656 50.1104 5.744 50.5264 5.92C50.9584 6.08 51.3264 6.304 51.6304 6.592C51.9504 6.88 52.2224 7.208 52.4464 7.576H52.5424C52.4944 7.32 52.4464 6.952 52.3984 6.472C52.3504 5.976 52.3264 5.472 52.3264 4.96V0.759999H56.1664V19H53.2624L52.4704 17.296H52.3264C52.1184 17.648 51.8624 17.976 51.5584 18.28C51.2544 18.568 50.8864 18.8 50.4544 18.976C50.0224 19.152 49.5104 19.24 48.9184 19.24ZM50.3824 16.384C51.1824 16.384 51.7504 16.096 52.0864 15.52C52.4384 14.928 52.6144 14.048 52.6144 12.88V12.496C52.6144 11.216 52.4544 10.24 52.1344 9.568C51.8144 8.896 51.2144 8.56 50.3344 8.56C49.7104 8.56 49.2064 8.904 48.8224 9.592C48.4544 10.264 48.2704 11.24 48.2704 12.52C48.2704 13.8 48.4544 14.768 48.8224 15.424C49.2064 16.064 49.7264 16.384 50.3824 16.384ZM63.2611 5.896V19H59.4211V5.896H63.2611ZM61.3651 0.759999C61.9251 0.759999 62.4051 0.887999 62.8051 1.144C63.2051 1.384 63.4051 1.84 63.4051 2.512C63.4051 3.168 63.2051 3.624 62.8051 3.88C62.4051 4.136 61.9251 4.264 61.3651 4.264C60.7891 4.264 60.3011 4.136 59.9011 3.88C59.5011 3.624 59.3011 3.168 59.3011 2.512C59.3011 1.84 59.5011 1.384 59.9011 1.144C60.3011 0.887999 60.7891 0.759999 61.3651 0.759999ZM72.1626 16.384C72.5466 16.384 72.8986 16.344 73.2186 16.264C73.5546 16.184 73.8986 16.088 74.2506 15.976V18.64C73.8506 18.8 73.3786 18.936 72.8346 19.048C72.3066 19.176 71.6826 19.24 70.9626 19.24C70.1946 19.24 69.5066 19.112 68.8986 18.856C68.3066 18.6 67.8426 18.16 67.5066 17.536C67.1706 16.896 67.0026 16.016 67.0026 14.896V8.584H65.4426V7.072L67.3146 5.872L68.3706 3.112H70.8426V5.896H74.1066V8.584H70.8426V14.896C70.8426 15.392 70.9626 15.768 71.2026 16.024C71.4426 16.264 71.7626 16.384 72.1626 16.384Z" fill="#486A6F"/>
</svg>
